<?xml version="1.0" encoding="UTF-8"?>
<svg xmlns="http://www.w3.org/2000/svg" xmlns:xlink="http://www.w3.org/1999/xlink" viewBox="0 0 100 100" width="100px" height="100px">
<g id="surface143771969">
<path style=" stroke:none;fill-rule:nonzero;fill:rgb(100%,100%,100%);fill-opacity:1;" d="M 82 63.613281 L 82 36.386719 C 82 33.378906 80.398438 30.597656 77.789062 29.09375 L 54.210938 15.480469 C 51.605469 13.976562 48.398438 13.976562 45.789062 15.480469 L 22.210938 29.09375 C 19.605469 30.597656 18 33.378906 18 36.386719 L 18 63.613281 C 18 66.621094 19.605469 69.402344 22.210938 70.90625 L 45.789062 84.519531 C 48.394531 86.023438 51.605469 86.023438 54.210938 84.519531 L 77.789062 70.90625 C 80.398438 69.402344 82 66.621094 82 63.613281 "/>
<path style=" stroke:none;fill-rule:nonzero;fill:rgb(26.666668%,26.666668%,27.058825%);fill-opacity:1;" d="M 76.84375 33.355469 L 53.347656 46.410156 C 51.28125 47.558594 50 49.734375 50 52.097656 L 50 82.117188 C 50 83.929688 51.949219 85.078125 53.535156 84.195312 L 78.96875 70.066406 C 79.808594 69.363281 80.492188 68.515625 81 67.566406 L 81 35.804688 C 81 33.671875 78.707031 32.320312 76.84375 33.355469 Z M 76.84375 33.355469 "/>
<path style=" stroke:none;fill-rule:nonzero;fill:rgb(100%,100%,100%);fill-opacity:1;" d="M 60.09375 52.777344 C 60.28125 52.683594 60.4375 52.800781 60.4375 53.046875 L 60.460938 55.066406 C 61.304688 54.734375 62.039062 54.640625 62.707031 54.796875 C 62.851562 54.835938 62.914062 55.03125 62.855469 55.265625 L 62.410156 57.054688 C 62.375 57.191406 62.300781 57.328125 62.210938 57.410156 C 62.167969 57.449219 62.128906 57.480469 62.089844 57.5 C 62.03125 57.53125 61.972656 57.539062 61.914062 57.527344 C 61.609375 57.460938 60.890625 57.300781 59.753906 57.878906 C 58.558594 58.484375 58.140625 59.519531 58.148438 60.285156 C 58.160156 61.207031 58.632812 61.484375 60.257812 61.515625 C 62.425781 61.550781 63.363281 62.496094 63.386719 64.679688 C 63.410156 66.824219 62.261719 69.128906 60.511719 70.535156 L 60.550781 72.539062 C 60.554688 72.78125 60.398438 73.058594 60.207031 73.152344 L 59.019531 73.835938 C 58.832031 73.929688 58.675781 73.8125 58.675781 73.570312 L 58.652344 71.601562 C 57.636719 72.027344 56.609375 72.128906 55.953125 71.863281 C 55.828125 71.816406 55.773438 71.632812 55.824219 71.421875 L 56.253906 69.613281 C 56.289062 69.472656 56.363281 69.328125 56.46875 69.238281 C 56.503906 69.203125 56.539062 69.175781 56.578125 69.15625 C 56.644531 69.121094 56.710938 69.113281 56.769531 69.136719 C 57.476562 69.375 58.378906 69.261719 59.253906 68.820312 C 60.355469 68.261719 61.097656 67.132812 61.085938 66.011719 C 61.074219 64.996094 60.523438 64.574219 59.1875 64.566406 C 57.480469 64.566406 55.894531 64.234375 55.867188 61.726562 C 55.84375 59.65625 56.917969 57.507812 58.621094 56.148438 L 58.601562 54.128906 C 58.597656 53.882812 58.75 53.609375 58.945312 53.511719 Z M 60.09375 52.777344 "/>
<path style=" stroke:none;fill-rule:nonzero;fill:rgb(30.19608%,66.274512%,14.509805%);fill-opacity:1;" d="M 71.570312 68.640625 L 65.867188 71.824219 C 65.757812 71.886719 65.625 71.804688 65.625 71.683594 L 65.625 70.429688 C 65.625 70.316406 65.683594 70.214844 65.785156 70.15625 L 71.488281 66.972656 C 71.597656 66.910156 71.734375 66.992188 71.734375 67.117188 L 71.734375 68.363281 C 71.734375 68.480469 71.671875 68.585938 71.570312 68.640625 "/>
<path style=" stroke:none;fill-rule:nonzero;fill:rgb(12.156863%,12.941177%,16.862746%);fill-opacity:1;" d="M 44 78.214844 C 43.914062 78.214844 43.828125 78.191406 43.75 78.144531 L 41.75 76.992188 C 41.511719 76.851562 41.429688 76.546875 41.566406 76.308594 C 41.703125 76.066406 42.011719 75.988281 42.25 76.125 L 44.25 77.28125 C 44.488281 77.417969 44.570312 77.722656 44.433594 77.964844 C 44.339844 78.125 44.171875 78.214844 44 78.214844 Z M 40 75.902344 C 39.914062 75.902344 39.828125 75.882812 39.75 75.835938 L 28.65625 69.433594 C 28.417969 69.296875 28.335938 68.988281 28.472656 68.75 C 28.613281 68.511719 28.917969 68.429688 29.15625 68.566406 L 40.25 74.972656 C 40.488281 75.109375 40.570312 75.414062 40.433594 75.652344 C 40.339844 75.8125 40.171875 75.902344 40 75.902344 Z M 27 68.398438 C 26.914062 68.398438 26.828125 68.378906 26.75 68.332031 L 24.644531 67.117188 C 23.320312 66.351562 22.5 64.929688 22.5 63.402344 L 22.5 46 C 22.5 45.722656 22.722656 45.5 23 45.5 C 23.277344 45.5 23.5 45.722656 23.5 46 L 23.5 63.402344 C 23.5 64.570312 24.128906 65.664062 25.144531 66.25 L 27.25 67.464844 C 27.488281 67.601562 27.570312 67.910156 27.433594 68.148438 C 27.339844 68.308594 27.171875 68.398438 27 68.398438 Z M 23 44.5 C 22.722656 44.5 22.5 44.277344 22.5 44 L 22.5 41 C 22.5 40.722656 22.722656 40.5 23 40.5 C 23.277344 40.5 23.5 40.722656 23.5 41 L 23.5 44 C 23.5 44.277344 23.277344 44.5 23 44.5 Z M 23 39.5 C 22.722656 39.5 22.5 39.277344 22.5 39 L 22.5 36.601562 C 22.5 36.324219 22.722656 36.101562 23 36.101562 C 23.277344 36.101562 23.5 36.324219 23.5 36.601562 L 23.5 39 C 23.5 39.277344 23.277344 39.5 23 39.5 Z M 23 39.5 "/>
<path style=" stroke:none;fill-rule:nonzero;fill:rgb(12.156863%,12.941177%,16.862746%);fill-opacity:1;" d="M 77.855469 28.554688 L 54.644531 15.152344 C 51.828125 13.527344 48.179688 13.523438 45.355469 15.152344 L 22.144531 28.554688 C 19.277344 30.210938 17.5 33.292969 17.5 36.601562 L 17.5 63.402344 C 17.5 66.710938 19.277344 69.792969 22.144531 71.445312 L 45.355469 84.847656 C 46.769531 85.660156 48.375 86.09375 50 86.09375 C 51.628906 86.09375 53.234375 85.660156 54.644531 84.847656 L 77.855469 71.445312 C 80.722656 69.792969 82.503906 66.710938 82.503906 63.402344 L 82.503906 36.601562 C 82.5 33.289062 80.722656 30.207031 77.855469 28.554688 Z M 46.355469 83.113281 L 23.144531 69.714844 C 20.894531 68.414062 19.5 65.996094 19.5 63.402344 L 19.5 36.601562 C 19.5 34.003906 20.894531 31.585938 23.144531 30.285156 L 46.355469 16.886719 C 47.460938 16.246094 48.722656 15.910156 50 15.910156 C 51.277344 15.910156 52.539062 16.246094 53.644531 16.886719 L 76.855469 30.285156 C 77.90625 30.894531 78.761719 31.75 79.386719 32.75 C 78.476562 32.394531 77.472656 32.433594 76.601562 32.921875 L 53.105469 45.972656 C 50.882812 47.207031 49.5 49.554688 49.5 52.097656 L 49.5 82.117188 C 49.5 82.855469 49.78125 83.535156 50.261719 84.058594 C 48.910156 84.105469 47.539062 83.796875 46.355469 83.113281 Z M 76.855469 69.714844 L 53.644531 83.113281 C 53.042969 83.460938 52.394531 83.703125 51.726562 83.863281 C 51.625 83.824219 51.523438 83.789062 51.425781 83.734375 C 50.847656 83.394531 50.5 82.789062 50.5 82.117188 L 50.5 52.097656 C 50.5 49.917969 51.683594 47.90625 53.589844 46.847656 L 77.085938 33.792969 C 77.4375 33.597656 77.820312 33.503906 78.203125 33.503906 C 78.601562 33.503906 79.003906 33.609375 79.367188 33.820312 C 79.78125 34.066406 80.085938 34.429688 80.277344 34.851562 C 80.417969 35.417969 80.5 36.003906 80.5 36.601562 L 80.5 63.402344 C 80.5 66 79.105469 68.417969 76.855469 69.714844 Z M 76.855469 69.714844 "/>
</g>
</svg>
