<?xml version="1.0" encoding="utf-8"?>
<!-- Generator: Adobe Illustrator 25.2.1, SVG Export Plug-In . SVG Version: 6.00 Build 0)  -->
<svg version="1.1" id="katman_1" xmlns="http://www.w3.org/2000/svg" xmlns:xlink="http://www.w3.org/1999/xlink" x="0px" y="0px"
	 height="64pt" width="64pt" viewBox="0 0 64 64" style="enable-background:new 0 0 64 64;" xml:space="preserve">
<style type="text/css">
	.st0{fill:#FFFFFF;}
	.st1{fill:#3E3B8F;}
	.st2{fill-rule:evenodd;clip-rule:evenodd;fill:url(#SVGID_1_);}
</style>
<path class="st0" d="M32,62.4c16.8,0,30.4-13.6,30.4-30.4C62.4,15.2,48.8,1.6,32,1.6C15.2,1.6,1.6,15.2,1.6,32
	C1.6,48.8,15.2,62.4,32,62.4z"/>
<path class="st1" d="M32,0C14.3,0,0,14.3,0,32c0,17.7,14.3,32,32,32c17.7,0,32-14.3,32-32C64,14.3,49.7,0,32,0z M32,3.3
	c15.9,0,28.7,12.9,28.7,28.7c0,15.9-12.9,28.7-28.7,28.7C16.1,60.7,3.3,47.9,3.3,32C3.3,16.1,16.1,3.3,32,3.3z"/>
<linearGradient id="SVGID_1_" gradientUnits="userSpaceOnUse" x1="32.3617" y1="11.2202" x2="32.3617" y2="56.7795" gradientTransform="matrix(1 0 0 -1 0 66)">
	<stop  offset="0" style="stop-color:#574193"/>
	<stop  offset="1" style="stop-color:#3E3B8F"/>
</linearGradient>
<path class="st2" d="M32.4,9.2c12.6,0,22.8,10.2,22.8,22.8c0,12.6-10.2,22.8-22.8,22.8C19.8,54.8,9.6,44.6,9.6,32
	c0-3.1,0.6-6,1.7-8.7c1.6,2.2,4.2,3.6,7.1,3.6c4.9,0,8.9-4,8.9-8.9c0-2.9-1.4-5.5-3.6-7.1C26.4,9.8,29.3,9.2,32.4,9.2z"/>
</svg>
