<?xml version="1.0" encoding="utf-8"?>
<!-- Generator: Adobe Illustrator 25.2.1, SVG Export Plug-In . SVG Version: 6.00 Build 0)  -->
<svg version="1.1" id="katman_1" xmlns="http://www.w3.org/2000/svg" xmlns:xlink="http://www.w3.org/1999/xlink" x="0px" y="0px"
	 height="240pt" width="120pt" viewBox="0 0 240 120" style="enable-background:new 0 0 240 120;" xml:space="preserve">
<style type="text/css">
	.st0{fill-rule:evenodd;clip-rule:evenodd;fill:#FFDF0C;}
</style>
<path class="st0" d="M39.4,20.5h-4.1c-1.3,0-2.4,0.2-3.2,0.9c-0.7,0.4-1.3,1.3-1.7,1.9c-0.4,0.9-0.6,1.7-0.7,2.6l0,0
	c-0.2,1.1-0.2,1.9-0.2,2.6v19.2c0,2.4-0.4,4.3-1.3,5.8c-0.9,1.5-2,2.8-3.5,3.6c-1.3,0.9-3,1.5-4.5,1.9c-1.7,0.4-3.2,0.6-4.5,0.6v0.2
	c1.2,0,2.5,0.2,3.9,0.4l0.6,0.1c1.7,0.2,3.2,0.9,4.5,1.7c1.3,0.9,2.6,2.1,3.5,3.8c0.9,1.7,1.3,4.1,1.3,6.8v18.2c0,0.9,0,1.7,0.2,2.6
	c0.2,1.1,0.4,1.9,0.9,2.6c0.4,0.9,1.1,1.5,2,1.9c0.9,0.4,2,0.9,3.7,0.9h3.2v21.2H26.4c-1.9,0-3.7-0.4-5.6-1.1
	c-1.9-0.6-3.7-1.7-5.4-3c-1.7-1.3-3-3.2-4.1-5.3c-1.1-2.1-1.5-4.7-1.5-7.7V78.9c0-1.9-0.4-3.4-1.1-4.5C8,73.3,7.1,72.4,6,71.8
	c-1.1-0.6-2.2-1.1-3.3-1.3c-1.1-0.2-2-0.2-2.6-0.2V50h0c0.7,0,1.5,0,2.6-0.2c1.1-0.2,2.2-0.4,3.2-1.1c1.1-0.6,1.9-1.3,2.8-2.4
	c0.9-1.1,1.1-2.4,1.1-4.1v-25c0-3,0.6-5.6,1.5-7.7c1.1-2.1,2.4-3.8,4.1-5.3c1.7-1.3,3.3-2.4,5.4-3c1.9-0.6,3.7-1.1,5.6-1.1h13.2
	V20.5z M200.6,20.5h4.1c1.3,0,2.4,0.2,3.2,0.9c0.7,0.4,1.3,1.3,1.7,1.9c0.4,0.9,0.6,1.7,0.7,2.6c0.2,1.1,0.2,1.9,0.2,2.6v19.2
	c0,2.4,0.4,4.3,1.3,5.8c0.9,1.5,2,2.8,3.5,3.6c1.3,0.9,3,1.5,4.5,1.9c1.7,0.4,3.2,0.6,4.5,0.6v0.2c-1.2,0-2.5,0.2-3.9,0.4l-0.6,0.1
	c-1.7,0.2-3.2,0.9-4.5,1.7c-1.3,0.9-2.6,2.1-3.5,3.8c-0.9,1.7-1.3,4.1-1.3,6.8v18.2c0,0.9,0,1.7-0.2,2.6c-0.2,1.1-0.4,1.9-0.9,2.6
	c-0.4,0.9-1.1,1.5-2,1.9c-0.9,0.4-2,0.9-3.7,0.9h-3.2v21.2h13.2c1.9,0,3.7-0.4,5.6-1.1c1.9-0.6,3.7-1.7,5.4-3c1.7-1.3,3-3.2,4.1-5.3
	c1.1-2.1,1.5-4.7,1.5-7.7V78.9c0-1.9,0.4-3.4,1.1-4.5c0.7-1.1,1.7-1.9,2.8-2.6c1.1-0.6,2.2-1.1,3.3-1.3c1.1-0.2,2-0.2,2.6-0.2V50
	c-0.7,0-1.5,0-2.6-0.2c-1.1-0.2-2.2-0.4-3.2-1.1c-1.1-0.6-1.9-1.3-2.8-2.4c-0.9-1.1-1.1-2.4-1.1-4.1v-25c0-3-0.6-5.6-1.5-7.7
	c-1.1-2.1-2.4-3.8-4.1-5.3c-1.7-1.3-3.3-2.4-5.4-3c-1.9-0.6-3.7-1.1-5.6-1.1h-13.2V20.5z M159.4,75.8L82.5,4.5H64.2v17l76.9,71.3
	l-13.7,12.7l9.1,8.4l15.8-14.8l20.8,19c2.5,2.3,6.6,2.3,9.1,0l4.6-4.3c2.5-2.3,2.5-6.1,0-8.4l-20.6-19.1l16-14.8l-9.1-8.4
	L159.4,75.8z M175.8,21.4l-30.6,28.4l-18.3-16.9l30.6-28.4h18.3V21.4z M94.9,62.5l18.3,17.2l-14.3,13l13.7,12.7l-9.1,8.4L87.7,99.1
	l-20.8,19.1c-2.5,2.3-6.6,2.3-9.1,0l-4.6-4.3c-2.5-2.3-2.5-6.1,0-8.4l20.6-19.1l-16-14.8l9.1-8.4l13.7,12.7L94.9,62.5z"/>
</svg>
